<svg width="13" height="8" viewBox="0 0 13 8" fill="none" xmlns="http://www.w3.org/2000/svg">
<path d="M6.03176 0.666421L0.691706 6.00657C0.568097 6.13008 0.5 6.29496 0.5 6.47076C0.5 6.64657 0.568097 6.81144 0.691706 6.93496L1.08487 7.32822C1.34107 7.58412 1.75745 7.58412 2.01326 7.32822L6.49751 2.84396L10.9867 7.3332C11.1104 7.45671 11.2751 7.5249 11.4508 7.5249C11.6267 7.5249 11.7915 7.45671 11.9152 7.3332L12.3083 6.93993C12.4319 6.81632 12.5 6.65154 12.5 6.47574C12.5 6.29994 12.4319 6.13506 12.3083 6.01155L6.96336 0.666421C6.83936 0.542617 6.6738 0.474617 6.4978 0.475008C6.32112 0.474617 6.15566 0.542617 6.03176 0.666421Z" fill="#2C5F42"/>
</svg>
