<svg width="24" height="24" viewBox="0 0 24 24" fill="none" xmlns="http://www.w3.org/2000/svg">
<path d="M12.9682 15.3336L18.3083 9.99343C18.4319 9.86992 18.5 9.70504 18.5 9.52924C18.5 9.35343 18.4319 9.18856 18.3083 9.06504L17.9151 8.67178C17.6589 8.41588 17.2425 8.41588 16.9867 8.67178L12.5025 13.156L8.01326 8.6668C7.88965 8.54329 7.72487 8.4751 7.54916 8.4751C7.37326 8.4751 7.20848 8.54329 7.08478 8.6668L6.69171 9.06007C6.5681 9.18368 6.5 9.34846 6.5 9.52426C6.5 9.70006 6.5681 9.86494 6.69171 9.98845L12.0366 15.3336C12.1606 15.4574 12.3262 15.5254 12.5022 15.525C12.6789 15.5254 12.8443 15.4574 12.9682 15.3336Z" fill="#2C5F42"/>
</svg>
