<svg width="24" height="25" viewBox="0 0 24 25" fill="none" xmlns="http://www.w3.org/2000/svg">
<g clip-path="url(#clip0_751_210)">
<path d="M7.68934 8.21093C6.59422 9.31152 5.9166 10.8279 5.9166 12.5C5.9166 14.1721 6.59421 15.6885 7.68932 16.789C6.47715 16.3085 5.3659 15.6789 4.40053 15.026C2.91156 14.019 1.82922 12.997 1.33693 12.5C1.82922 12.003 2.91154 10.981 4.4005 9.97399C5.36588 9.32109 6.47715 8.69149 7.68934 8.21093ZM16.3107 16.789C17.4058 15.6885 18.0834 14.1721 18.0834 12.5C18.0834 10.8279 17.4058 9.31151 16.3107 8.21092C17.5229 8.69149 18.6342 9.32109 19.5996 9.97399C21.0886 10.981 22.1709 12.0031 22.6631 12.5C22.1708 12.9969 21.0885 14.019 19.5995 15.026C18.6341 15.6789 17.5229 16.3085 16.3107 16.789Z" fill="#2C5F42" stroke="#2C5F42" stroke-width="2.32309"/>
<path opacity="0.2" d="M11.6753 10.1683C11.5885 10.461 11.5416 10.7715 11.5416 11.0938C11.5416 12.4918 12.4295 13.6946 13.6609 14.1588C13.2355 14.5885 12.6474 14.8541 12 14.8541C10.7031 14.8541 9.64592 13.7969 9.64592 12.5C9.64592 11.3132 10.5312 10.3272 11.6753 10.1683Z" fill="#2C5F42" stroke="#2C5F42" stroke-width="2.32309"/>
</g>
<defs>
<clipPath id="clip0_751_210">
<rect width="24" height="24" fill="white" transform="translate(0 0.5)"/>
</clipPath>
</defs>
</svg>
