<svg width="24" height="24" viewBox="0 0 24 24" fill="none" xmlns="http://www.w3.org/2000/svg">
<g opacity="0.3">
<path d="M20.5605 18.4395L16.7527 14.6318C17.5671 13.4078 18.0011 11.9702 18 10.5C18 6.3645 14.6355 3 10.5 3C6.3645 3 3 6.3645 3 10.5C3 14.6355 6.3645 18 10.5 18C11.9702 18.0011 13.4078 17.5671 14.6318 16.7527L18.4395 20.5605C18.5779 20.7038 18.7434 20.818 18.9264 20.8967C19.1094 20.9753 19.3062 21.0166 19.5054 21.0184C19.7046 21.0201 19.9021 20.9822 20.0864 20.9067C20.2708 20.8313 20.4383 20.7199 20.5791 20.5791C20.7199 20.4383 20.8313 20.2708 20.9067 20.0864C20.9822 19.9021 21.0201 19.7046 21.0184 19.5054C21.0166 19.3062 20.9753 19.1094 20.8967 18.9264C20.818 18.7434 20.7038 18.5779 20.5605 18.4395ZM5.25 10.5C5.25 7.605 7.605 5.25 10.5 5.25C13.395 5.25 15.75 7.605 15.75 10.5C15.75 13.395 13.395 15.75 10.5 15.75C7.605 15.75 5.25 13.395 5.25 10.5Z" fill="#121212"/>
</g>
</svg>
