<svg width="57" height="58" viewBox="0 0 57 58" fill="none" xmlns="http://www.w3.org/2000/svg">
<g filter="url(#filter0_d_57_671)">
<path d="M17.1471 27.4567C20.9274 25.2608 21.7469 19.5923 18.9741 14.8188C16.2015 10.0457 10.8708 7.94824 7.09061 10.144C3.31143 12.3393 2.49216 18.009 5.26481 22.7822C8.03761 27.5557 13.3679 29.6519 17.1471 27.4567ZM42.3706 24.0662C42.1253 23.9677 41.8918 23.876 41.7348 23.7718C38.4089 21.575 32.0932 20.3762 25.2337 24.2397L24.971 24.3904C18.2686 28.2837 16.1004 34.1529 16.3064 38.3491C16.3129 38.493 16.2694 38.7099 16.2231 38.9394C16.1672 39.2092 16.1155 39.4821 16.0957 39.7575C15.8847 42.6394 16.5154 45.3798 17.8727 47.4724C19.3123 49.6949 21.3971 50.9408 23.7377 50.9828C24.683 50.9992 25.5618 50.7737 26.354 50.3136C27.9875 49.3647 28.9801 47.6304 30.1308 45.6211C30.8615 44.342 31.6166 43.0216 32.5942 41.7939C32.7103 41.6676 33.2519 41.2633 34.2014 40.7117C35.3305 40.0559 36.1962 39.6794 36.4021 39.635C37.934 39.4308 39.4084 39.4737 40.8336 39.5138C43.0195 39.5769 45.0831 39.6359 46.7294 38.6796C47.4359 38.2692 48.0188 37.696 48.4643 36.9753C50.9218 32.9995 48.5642 27.3774 43.21 24.443C42.9413 24.2957 42.6551 24.1788 42.3706 24.0662ZM31.7233 18.9897C35.5017 16.7949 36.322 11.1259 33.5492 6.35249C30.7766 1.57939 25.4452 -0.517743 21.6668 1.67708C17.8861 3.87317 17.0672 9.54269 19.8399 14.3159C22.6127 19.0894 27.9426 21.1858 31.7233 18.9897ZM40.3989 8.00563C37.3691 9.76553 36.7153 14.0993 38.9077 17.8735C41.0991 21.6461 45.1892 23.2246 48.2174 21.4656C51.2455 19.7067 51.902 15.3709 49.7106 11.5983C47.5183 7.82421 43.4283 6.24587 40.3989 8.00563ZM13.1867 32.8143C10.9944 29.0401 6.90446 27.4618 3.87607 29.2209C0.847553 30.9801 0.19198 35.315 2.38429 39.0892C4.57567 42.8617 8.66613 44.44 11.6946 42.6808C14.7232 40.9217 15.3781 36.5868 13.1867 32.8143Z" fill="#C2CCC6"/>
</g>
<defs>
<filter id="filter0_d_57_671" x="0.0900879" y="0.806152" width="55.9137" height="57.1772" filterUnits="userSpaceOnUse" color-interpolation-filters="sRGB">
<feFlood flood-opacity="0" result="BackgroundImageFix"/>
<feColorMatrix in="SourceAlpha" type="matrix" values="0 0 0 0 0 0 0 0 0 0 0 0 0 0 0 0 0 0 127 0" result="hardAlpha"/>
<feOffset dx="2" dy="4"/>
<feGaussianBlur stdDeviation="1.5"/>
<feComposite in2="hardAlpha" operator="out"/>
<feColorMatrix type="matrix" values="0 0 0 0 0 0 0 0 0 0 0 0 0 0 0 0 0 0 0.07 0"/>
<feBlend mode="normal" in2="BackgroundImageFix" result="effect1_dropShadow_57_671"/>
<feBlend mode="normal" in="SourceGraphic" in2="effect1_dropShadow_57_671" result="shape"/>
</filter>
</defs>
</svg>
