<svg width="111" height="111" viewBox="0 0 111 111" fill="none" xmlns="http://www.w3.org/2000/svg">
<g opacity="0.2" clip-path="url(#clip0_232_424)">
<path d="M45.2814 46.8143C51.0771 49.5056 58.7288 45.3686 62.3407 37.5906C65.9523 29.8132 64.1767 21.296 58.3812 18.6047C52.5871 15.9141 44.9341 20.0526 41.3224 27.8302C37.7105 35.6082 39.4873 44.1236 45.2814 46.8143ZM70.0826 75.01C70.0034 74.6163 69.9254 74.2434 69.9255 73.954C69.9114 67.8326 66.2236 58.911 55.856 53.9173L55.4555 53.7286C45.1797 48.9568 36.178 51.604 31.1782 55.6743C31.0063 55.8131 30.7036 55.9563 30.3831 56.1074C30.0051 56.2835 29.6267 56.4675 29.2713 56.6934C25.5492 59.0516 22.6898 62.3249 21.2223 65.9106C19.6621 69.7163 19.8324 73.4341 21.6946 76.3746C22.4473 77.5619 23.4437 78.4467 24.6582 79.0106C27.1625 80.1736 30.1103 79.8278 33.526 79.4279C35.6988 79.1713 37.9426 78.9073 40.2541 79.0033C40.5046 79.0326 41.4455 79.3366 42.9012 80.0126C44.6322 80.8164 45.8038 81.5477 46.0268 81.7627C47.531 83.4766 48.6838 85.3439 49.7998 87.1477C51.5095 89.9156 53.1243 92.5283 55.6483 93.7004C56.7315 94.2034 57.9141 94.405 59.166 94.3022C66.0724 93.7352 71.0689 85.7006 70.305 76.3934C70.2666 75.9264 70.1767 75.4652 70.0826 75.01ZM67.6288 57.1918C73.4217 59.8819 81.0746 55.7454 84.6865 47.9674C88.2981 40.19 86.5215 31.6724 80.7286 28.9823C74.9323 26.2907 67.2798 30.4294 63.6681 38.207C60.0562 45.985 61.8325 54.5002 67.6288 57.1918ZM88.2514 57.9642C83.6064 55.8071 77.7341 58.9362 74.8783 65.0861C72.0237 71.2331 73.424 77.7401 78.0668 79.8961C82.7092 82.0519 88.5862 78.9243 91.4407 72.7773C94.2965 66.6276 92.8961 60.121 88.2514 57.9642ZM35.4443 46.7739C38.3 40.6242 36.8996 34.1176 32.2566 31.9616C27.6134 29.8054 21.7383 32.9334 18.8825 39.083C16.028 45.2301 17.4288 51.7373 22.0719 53.8935C26.7151 56.0496 32.5897 52.9209 35.4443 46.7739Z" fill="#2C5F42"/>
</g>
<defs>
<clipPath id="clip0_232_424">
<rect width="80" height="80" fill="white" transform="translate(43.9932) rotate(33.3612)"/>
</clipPath>
</defs>
</svg>
